<svg width="76" height="77" viewBox="0 0 76 77" fill="none" xmlns="http://www.w3.org/2000/svg">
<g clip-path="url(#clip0_138_135)">
<g clip-path="url(#clip1_138_135)">
<g clip-path="url(#clip2_138_135)">
<path fill-rule="evenodd" clip-rule="evenodd" d="M51.0112 2.43749C47.5521 1.14093 43.8568 0.327781 40.0076 0.0803149V18.5094C44.9115 18.4535 49.8069 18.061 54.2096 17.5497C53.9428 15.8724 53.66 14.278 53.375 12.7893C52.7182 9.35837 52.0533 6.50701 51.554 4.51817C51.3367 3.65274 51.151 2.95138 51.0112 2.43749ZM54.911 22.5018C50.3264 23.0377 45.1859 23.4533 40.0076 23.5097V35.8709H55.8348C55.7987 31.2716 55.4331 26.7202 54.911 22.5018ZM35.0076 18.4364V0.0793457C31.3549 0.312742 27.8408 1.05549 24.5354 2.23733C24.4984 2.36547 24.4474 2.54388 24.3843 2.76966C24.2399 3.28655 24.0321 4.05132 23.7827 5.02911C23.2836 6.98541 22.6191 9.79029 21.9626 13.1653C21.7183 14.4215 21.4755 15.7541 21.2431 17.149C25.5953 17.7493 30.3552 18.2486 35.0076 18.4364ZM20.5074 22.0949C25.0472 22.7224 30.0678 23.2498 35.0076 23.4402V35.8709H19.5042C19.5419 31.119 19.9431 26.4186 20.5074 22.0949ZM16.2987 16.4018C16.5433 14.929 16.7986 13.5268 17.0546 12.2106C17.6156 9.32629 18.1829 6.84249 18.6559 4.91907C14.2314 7.40722 10.3484 10.7445 7.22778 14.7099C7.29302 14.7236 7.35922 14.7374 7.42636 14.7515C9.4302 15.1702 12.2718 15.7292 15.6128 16.2882C15.8393 16.3261 16.0679 16.364 16.2987 16.4018ZM4.19708 19.1699C4.74569 19.2923 5.49116 19.4551 6.40373 19.6458C8.46006 20.0754 11.3686 20.6476 14.7876 21.2197C15.043 21.2624 15.3013 21.3051 15.5625 21.3478C14.9684 25.8751 14.5421 30.8317 14.5041 35.8709H-0.911652C-0.503091 29.8125 1.307 24.1383 4.19708 19.1699ZM59.8687 21.852C60.4264 21.7711 60.9701 21.6897 61.4984 21.6084C64.5891 21.1325 67.1698 20.6564 68.9814 20.2985C69.8875 20.1194 70.602 19.9698 71.0925 19.8644C71.1247 19.8575 71.1559 19.8507 71.1861 19.8442C73.8529 24.6493 75.5214 30.0849 75.9116 35.8709H60.8349C60.7987 31.0231 60.4142 26.2503 59.8687 21.852ZM68.2607 15.344C68.1797 15.3601 68.0969 15.3766 68.0123 15.3933C66.2581 15.7399 63.7477 16.2031 60.7375 16.6666C60.2282 16.745 59.7051 16.8234 59.1693 16.9011C58.8865 15.1134 58.5867 13.4209 58.2858 11.8491C57.7967 9.2944 57.3029 7.04908 56.8711 5.2209C61.3088 7.80959 65.1819 11.2605 68.2607 15.344ZM55.7258 40.8709H40.0076V54.1843C44.8105 54.2587 49.5659 54.6356 53.8597 55.124C54.7544 50.5597 55.4638 45.6753 55.7258 40.8709ZM35.0076 40.8709V54.2281C30.3976 54.3836 25.7 54.8407 21.3727 55.406C20.534 50.7117 19.8637 45.7146 19.6113 40.8709H35.0076ZM35.0076 59.231C30.7559 59.3814 26.3981 59.7996 22.3295 60.3238C22.627 61.7411 22.9325 63.1104 23.238 64.4166C24.1318 68.2394 25.0173 71.4922 25.6785 73.7864C25.8401 74.3471 25.9882 74.8503 26.1196 75.2903C28.9562 76.1667 31.9328 76.7241 35.0076 76.9206V59.231ZM14.605 40.8709C14.8572 45.9913 15.5537 51.2346 16.4208 56.1186C15.683 56.2342 14.9644 56.3509 14.2679 56.4674C10.8489 57.0395 7.94037 57.6117 5.88404 58.0413C5.36606 58.1496 4.90191 58.2488 4.49704 58.3368C1.39027 53.1791 -0.541632 47.2336 -0.928192 40.8709H14.605ZM15.0931 61.3989C12.1337 61.8941 9.56604 62.3893 7.62545 62.7869C11.0511 66.9956 15.3484 70.4666 20.2421 72.9247C19.6758 70.8626 19.0248 68.3583 18.3693 65.555C18.0343 64.1226 17.6972 62.608 17.3692 61.0311C16.5897 61.1525 15.8298 61.2756 15.0931 61.3989ZM52.804 60.0369C48.793 59.5927 44.4106 59.2562 40.0076 59.1849V76.9196C42.895 76.734 45.6959 76.23 48.3753 75.4425C48.569 74.8849 48.8157 74.1591 49.101 73.2871C49.8242 71.0763 50.7929 67.9309 51.7702 64.2074C52.1182 62.8815 52.4662 61.4861 52.804 60.0369ZM56.6064 65.4766C57.0039 63.9622 57.404 62.3502 57.7912 60.6635C58.6296 60.7811 59.4399 60.9007 60.2178 61.0205C63.228 61.484 65.7384 61.9472 67.4926 62.2938L67.7318 62.3413C64.1707 66.8507 59.6222 70.5444 54.4126 73.096C55.0659 71.0153 55.8336 68.4212 56.6064 65.4766ZM75.9282 40.8709C75.5533 47.0416 73.7249 52.8199 70.781 57.8677L70.5728 57.8227C70.0823 57.7173 69.3678 57.5677 68.4617 57.3886C66.6501 57.0307 64.0694 56.5546 60.9787 56.0787C60.2876 55.9723 59.5703 55.8658 58.8297 55.7606C59.7458 51.0267 60.4735 45.9264 60.7328 40.8709H75.9282ZM76 38.5346L76 38.5L76 38.4653V38.5346Z" fill="#00B100"/>
<path fill-rule="evenodd" clip-rule="evenodd" d="M51.0112 2.43749C47.5521 1.14093 43.8568 0.327781 40.0076 0.0803149V18.5094C44.9115 18.4535 49.8069 18.061 54.2096 17.5497C53.9428 15.8724 53.66 14.278 53.375 12.7893C52.7182 9.35837 52.0533 6.50701 51.554 4.51817C51.3367 3.65274 51.151 2.95138 51.0112 2.43749ZM54.911 22.5018C50.3264 23.0377 45.1859 23.4533 40.0076 23.5097V35.8709H55.8348C55.7987 31.2716 55.4331 26.7202 54.911 22.5018ZM35.0076 18.4364V0.0793457C31.3549 0.312742 27.8408 1.05549 24.5354 2.23733C24.4984 2.36547 24.4474 2.54388 24.3843 2.76966C24.2399 3.28655 24.0321 4.05132 23.7827 5.02911C23.2836 6.98541 22.6191 9.79029 21.9626 13.1653C21.7183 14.4215 21.4755 15.7541 21.2431 17.149C25.5953 17.7493 30.3552 18.2486 35.0076 18.4364ZM20.5074 22.0949C25.0472 22.7224 30.0678 23.2498 35.0076 23.4402V35.8709H19.5042C19.5419 31.119 19.9431 26.4186 20.5074 22.0949ZM16.2987 16.4018C16.5433 14.929 16.7986 13.5268 17.0546 12.2106C17.6156 9.32629 18.1829 6.84249 18.6559 4.91907C14.2314 7.40722 10.3484 10.7445 7.22778 14.7099C7.29302 14.7236 7.35922 14.7374 7.42636 14.7515C9.4302 15.1702 12.2718 15.7292 15.6128 16.2882C15.8393 16.3261 16.0679 16.364 16.2987 16.4018ZM4.19708 19.1699C4.74569 19.2923 5.49116 19.4551 6.40373 19.6458C8.46006 20.0754 11.3686 20.6476 14.7876 21.2197C15.043 21.2624 15.3013 21.3051 15.5625 21.3478C14.9684 25.8751 14.5421 30.8317 14.5041 35.8709H-0.911652C-0.503091 29.8125 1.307 24.1383 4.19708 19.1699ZM59.8687 21.852C60.4264 21.7711 60.9701 21.6897 61.4984 21.6084C64.5891 21.1325 67.1698 20.6564 68.9814 20.2985C69.8875 20.1194 70.602 19.9698 71.0925 19.8644C71.1247 19.8575 71.1559 19.8507 71.1861 19.8442C73.8529 24.6493 75.5214 30.0849 75.9116 35.8709H60.8349C60.7987 31.0231 60.4142 26.2503 59.8687 21.852ZM68.2607 15.344C68.1797 15.3601 68.0969 15.3766 68.0123 15.3933C66.2581 15.7399 63.7477 16.2031 60.7375 16.6666C60.2282 16.745 59.7051 16.8234 59.1693 16.9011C58.8865 15.1134 58.5867 13.4209 58.2858 11.8491C57.7967 9.2944 57.3029 7.04908 56.8711 5.2209C61.3088 7.80959 65.1819 11.2605 68.2607 15.344ZM55.7258 40.8709H40.0076V54.1843C44.8105 54.2587 49.5659 54.6356 53.8597 55.124C54.7544 50.5597 55.4638 45.6753 55.7258 40.8709ZM35.0076 40.8709V54.2281C30.3976 54.3836 25.7 54.8407 21.3727 55.406C20.534 50.7117 19.8637 45.7146 19.6113 40.8709H35.0076ZM35.0076 59.231C30.7559 59.3814 26.3981 59.7996 22.3295 60.3238C22.627 61.7411 22.9325 63.1104 23.238 64.4166C24.1318 68.2394 25.0173 71.4922 25.6785 73.7864C25.8401 74.3471 25.9882 74.8503 26.1196 75.2903C28.9562 76.1667 31.9328 76.7241 35.0076 76.9206V59.231ZM14.605 40.8709C14.8572 45.9913 15.5537 51.2346 16.4208 56.1186C15.683 56.2342 14.9644 56.3509 14.2679 56.4674C10.8489 57.0395 7.94037 57.6117 5.88404 58.0413C5.36606 58.1496 4.90191 58.2488 4.49704 58.3368C1.39027 53.1791 -0.541632 47.2336 -0.928192 40.8709H14.605ZM15.0931 61.3989C12.1337 61.8941 9.56604 62.3893 7.62545 62.7869C11.0511 66.9956 15.3484 70.4666 20.2421 72.9247C19.6758 70.8626 19.0248 68.3583 18.3693 65.555C18.0343 64.1226 17.6972 62.608 17.3692 61.0311C16.5897 61.1525 15.8298 61.2756 15.0931 61.3989ZM52.804 60.0369C48.793 59.5927 44.4106 59.2562 40.0076 59.1849V76.9196C42.895 76.734 45.6959 76.23 48.3753 75.4425C48.569 74.8849 48.8157 74.1591 49.101 73.2871C49.8242 71.0763 50.7929 67.9309 51.7702 64.2074C52.1182 62.8815 52.4662 61.4861 52.804 60.0369ZM56.6064 65.4766C57.0039 63.9622 57.404 62.3502 57.7912 60.6635C58.6296 60.7811 59.4399 60.9007 60.2178 61.0205C63.228 61.484 65.7384 61.9472 67.4926 62.2938L67.7318 62.3413C64.1707 66.8507 59.6222 70.5444 54.4126 73.096C55.0659 71.0153 55.8336 68.4212 56.6064 65.4766ZM75.9282 40.8709C75.5533 47.0416 73.7249 52.8199 70.781 57.8677L70.5728 57.8227C70.0823 57.7173 69.3678 57.5677 68.4617 57.3886C66.6501 57.0307 64.0694 56.5546 60.9787 56.0787C60.2876 55.9723 59.5703 55.8658 58.8297 55.7606C59.7458 51.0267 60.4735 45.9264 60.7328 40.8709H75.9282ZM76 38.5346L76 38.5L76 38.4653V38.5346Z" fill="url(#paint0_radial_138_135)"/>
<circle cx="57" cy="19.5472" r="16.3059" fill="#FF0000"/>
</g>
<g clip-path="url(#clip3_138_135)">
<path fill-rule="evenodd" clip-rule="evenodd" d="M24.8255 2.49914C28.3315 1.1667 32.0825 0.331681 35.9924 0.0803149V18.5094C30.9106 18.4515 25.8379 18.0321 21.3132 17.4936C21.7067 14.5649 22.1636 12.0791 22.6209 10.0103C23.2646 7.09846 23.9098 5.01057 24.3822 3.67443C24.5563 3.18192 24.7069 2.79136 24.8255 2.49914ZM20.7562 22.4626C25.4241 23.0173 30.6884 23.4519 35.9924 23.5097V35.8709H20.1645C20.1757 30.7857 20.4037 26.329 20.7562 22.4626ZM40.9924 18.4364V0.0793457C44.6476 0.312902 48.1641 1.05651 51.4714 2.23977C51.5013 2.33529 51.5428 2.46944 51.5943 2.64141C51.715 3.04392 51.8912 3.65356 52.106 4.46013C52.5356 6.07338 53.1195 8.47371 53.7226 11.5795C54.0454 13.2417 54.3736 15.1056 54.6865 17.1587C50.3535 17.7546 45.6198 18.2497 40.9924 18.4364ZM55.3587 22.1134C50.8541 22.7327 45.8837 23.2517 40.9924 23.4402V35.8709H56.4232C56.2348 30.7832 55.8435 26.1753 55.3587 22.1134ZM59.6306 16.4134C59.3067 14.2876 58.9665 12.3544 58.6309 10.6264C58.1939 8.37588 57.7648 6.47275 57.3901 4.94494C61.7955 7.43032 65.6624 10.7582 68.7722 14.7099C68.707 14.7236 68.6408 14.7374 68.5736 14.7515C66.5698 15.1702 63.7282 15.7292 60.3872 16.2882C60.1376 16.33 59.8854 16.3717 59.6306 16.4134ZM71.8029 19.1699C71.2543 19.2923 70.5088 19.4551 69.5963 19.6458C67.5399 20.0754 64.6314 20.6476 61.2124 21.2197C60.914 21.2696 60.6116 21.3195 60.3053 21.3694C60.8197 25.6454 61.2333 30.5032 61.4265 35.8709H76.9117C76.5031 29.8125 74.693 24.1383 71.8029 19.1699ZM15.7958 21.803C15.3551 21.7383 14.9235 21.6733 14.5016 21.6084C11.4109 21.1325 8.8302 20.6564 7.01857 20.2985C6.11247 20.1194 5.39801 19.9698 4.90749 19.8644C4.87532 19.8575 4.84411 19.8507 4.81387 19.8442C2.14709 24.6493 0.478561 30.0849 0.0883636 35.8709H15.1645C15.1759 30.548 15.4184 25.8719 15.7958 21.803ZM7.73931 15.344C7.82032 15.3601 7.90312 15.3766 7.98769 15.3933C9.74193 15.7399 12.2523 16.2031 15.2625 16.6666C15.6207 16.7218 15.9857 16.7769 16.3572 16.8318C16.7691 13.7658 17.2503 11.1407 17.7388 8.93101C18.0172 7.6715 18.2979 6.54729 18.5694 5.55369C14.3653 8.10239 10.688 11.4331 7.73931 15.344ZM20.2314 40.8709H35.9924V54.1843C30.9685 54.2621 25.9965 54.6709 21.5505 55.1921C20.8933 51.0313 20.4018 46.2573 20.2314 40.8709ZM40.9924 40.8709V54.2281C45.8418 54.3917 50.7882 54.889 55.2984 55.4949C55.9995 51.0599 56.4815 46.1275 56.5157 40.8709H40.9924ZM40.9924 59.231C45.4984 59.3904 50.1237 59.8506 54.3976 60.419C53.9858 62.3995 53.5424 64.2432 53.0947 65.9294C52.1595 69.4519 51.2088 72.2753 50.4961 74.2082C50.36 74.5775 50.2326 74.9141 50.1157 75.2167C47.2086 76.1355 44.1524 76.7187 40.9924 76.9206V59.231ZM61.5158 40.8709C61.4817 46.3974 60.9779 51.5746 60.2452 56.2241C60.7509 56.305 61.2469 56.3863 61.7321 56.4674C65.1511 57.0395 68.0596 57.6117 70.116 58.0413C70.6339 58.1496 71.0981 58.2488 71.503 58.3368C74.6097 53.1791 76.5416 47.2336 76.9282 40.8709H61.5158ZM60.9069 61.3989C63.8663 61.8941 66.434 62.3893 68.3746 62.7869C65.0834 66.8303 60.9879 70.1927 56.3318 72.6304C56.8405 71.0647 57.3869 69.2478 57.9273 67.2124C58.4178 65.3648 58.9042 63.3341 59.3531 61.145C59.8813 61.2292 60.3996 61.314 60.9069 61.3989ZM22.4568 60.1204C26.6655 59.6354 31.3173 59.2606 35.9924 59.1849V76.9196C33.0208 76.7286 30.1409 76.2004 27.3906 75.3729C27.2262 75.039 27.0275 74.6196 26.8025 74.1149C26.1059 72.5518 25.1574 70.1697 24.1956 66.9707C23.6027 64.9987 23.0044 62.7152 22.4568 60.1204ZM19.4073 68.4104C18.745 66.2074 18.0822 63.6593 17.4839 60.7667C16.9014 60.8508 16.3337 60.9356 15.7822 61.0205C12.772 61.484 10.2616 61.9472 8.50738 62.2938L8.26818 62.3413C11.6595 66.6357 15.9463 70.1903 20.8467 72.7232C20.385 71.4747 19.8964 70.037 19.4073 68.4104ZM0.0718231 40.8709C0.446716 47.0416 2.27509 52.8199 5.21902 57.8677L5.42717 57.8227C5.9177 57.7173 6.63216 57.5677 7.53825 57.3886C9.34989 57.0307 11.9306 56.5546 15.0213 56.0787C15.5308 56.0003 16.0546 55.9218 16.5915 55.8438C15.9063 51.471 15.3997 46.4794 15.229 40.8709H0.0718231ZM2.28882e-05 38.5346L7.62939e-06 38.5L2.28882e-05 38.4653V38.5346Z" fill="#008CD3"/>
<path fill-rule="evenodd" clip-rule="evenodd" d="M24.8255 2.49914C28.3315 1.1667 32.0825 0.331681 35.9924 0.0803149V18.5094C30.9106 18.4515 25.8379 18.0321 21.3132 17.4936C21.7067 14.5649 22.1636 12.0791 22.6209 10.0103C23.2646 7.09846 23.9098 5.01057 24.3822 3.67443C24.5563 3.18192 24.7069 2.79136 24.8255 2.49914ZM20.7562 22.4626C25.4241 23.0173 30.6884 23.4519 35.9924 23.5097V35.8709H20.1645C20.1757 30.7857 20.4037 26.329 20.7562 22.4626ZM40.9924 18.4364V0.0793457C44.6476 0.312902 48.1641 1.05651 51.4714 2.23977C51.5013 2.33529 51.5428 2.46944 51.5943 2.64141C51.715 3.04392 51.8912 3.65356 52.106 4.46013C52.5356 6.07338 53.1195 8.47371 53.7226 11.5795C54.0454 13.2417 54.3736 15.1056 54.6865 17.1587C50.3535 17.7546 45.6198 18.2497 40.9924 18.4364ZM55.3587 22.1134C50.8541 22.7327 45.8837 23.2517 40.9924 23.4402V35.8709H56.4232C56.2348 30.7832 55.8435 26.1753 55.3587 22.1134ZM59.6306 16.4134C59.3067 14.2876 58.9665 12.3544 58.6309 10.6264C58.1939 8.37588 57.7648 6.47275 57.3901 4.94494C61.7955 7.43032 65.6624 10.7582 68.7722 14.7099C68.707 14.7236 68.6408 14.7374 68.5736 14.7515C66.5698 15.1702 63.7282 15.7292 60.3872 16.2882C60.1376 16.33 59.8854 16.3717 59.6306 16.4134ZM71.8029 19.1699C71.2543 19.2923 70.5088 19.4551 69.5963 19.6458C67.5399 20.0754 64.6314 20.6476 61.2124 21.2197C60.914 21.2696 60.6116 21.3195 60.3053 21.3694C60.8197 25.6454 61.2333 30.5032 61.4265 35.8709H76.9117C76.5031 29.8125 74.693 24.1383 71.8029 19.1699ZM15.7958 21.803C15.3551 21.7383 14.9235 21.6733 14.5016 21.6084C11.4109 21.1325 8.8302 20.6564 7.01857 20.2985C6.11247 20.1194 5.39801 19.9698 4.90749 19.8644C4.87532 19.8575 4.84411 19.8507 4.81387 19.8442C2.14709 24.6493 0.478561 30.0849 0.0883636 35.8709H15.1645C15.1759 30.548 15.4184 25.8719 15.7958 21.803ZM7.73931 15.344C7.82032 15.3601 7.90312 15.3766 7.98769 15.3933C9.74193 15.7399 12.2523 16.2031 15.2625 16.6666C15.6207 16.7218 15.9857 16.7769 16.3572 16.8318C16.7691 13.7658 17.2503 11.1407 17.7388 8.93101C18.0172 7.6715 18.2979 6.54729 18.5694 5.55369C14.3653 8.10239 10.688 11.4331 7.73931 15.344ZM20.2314 40.8709H35.9924V54.1843C30.9685 54.2621 25.9965 54.6709 21.5505 55.1921C20.8933 51.0313 20.4018 46.2573 20.2314 40.8709ZM40.9924 40.8709V54.2281C45.8418 54.3917 50.7882 54.889 55.2984 55.4949C55.9995 51.0599 56.4815 46.1275 56.5157 40.8709H40.9924ZM40.9924 59.231C45.4984 59.3904 50.1237 59.8506 54.3976 60.419C53.9858 62.3995 53.5424 64.2432 53.0947 65.9294C52.1595 69.4519 51.2088 72.2753 50.4961 74.2082C50.36 74.5775 50.2326 74.9141 50.1157 75.2167C47.2086 76.1355 44.1524 76.7187 40.9924 76.9206V59.231ZM61.5158 40.8709C61.4817 46.3974 60.9779 51.5746 60.2452 56.2241C60.7509 56.305 61.2469 56.3863 61.7321 56.4674C65.1511 57.0395 68.0596 57.6117 70.116 58.0413C70.6339 58.1496 71.0981 58.2488 71.503 58.3368C74.6097 53.1791 76.5416 47.2336 76.9282 40.8709H61.5158ZM60.9069 61.3989C63.8663 61.8941 66.434 62.3893 68.3746 62.7869C65.0834 66.8303 60.9879 70.1927 56.3318 72.6304C56.8405 71.0647 57.3869 69.2478 57.9273 67.2124C58.4178 65.3648 58.9042 63.3341 59.3531 61.145C59.8813 61.2292 60.3996 61.314 60.9069 61.3989ZM22.4568 60.1204C26.6655 59.6354 31.3173 59.2606 35.9924 59.1849V76.9196C33.0208 76.7286 30.1409 76.2004 27.3906 75.3729C27.2262 75.039 27.0275 74.6196 26.8025 74.1149C26.1059 72.5518 25.1574 70.1697 24.1956 66.9707C23.6027 64.9987 23.0044 62.7152 22.4568 60.1204ZM19.4073 68.4104C18.745 66.2074 18.0822 63.6593 17.4839 60.7667C16.9014 60.8508 16.3337 60.9356 15.7822 61.0205C12.772 61.484 10.2616 61.9472 8.50738 62.2938L8.26818 62.3413C11.6595 66.6357 15.9463 70.1903 20.8467 72.7232C20.385 71.4747 19.8964 70.037 19.4073 68.4104ZM0.0718231 40.8709C0.446716 47.0416 2.27509 52.8199 5.21902 57.8677L5.42717 57.8227C5.9177 57.7173 6.63216 57.5677 7.53825 57.3886C9.34989 57.0307 11.9306 56.5546 15.0213 56.0787C15.5308 56.0003 16.0546 55.9218 16.5915 55.8438C15.9063 51.471 15.3997 46.4794 15.229 40.8709H0.0718231ZM2.28882e-05 38.5346L7.62939e-06 38.5L2.28882e-05 38.4653V38.5346Z" fill="url(#paint1_radial_138_135)"/>
</g>
</g>
</g>
<defs>
<radialGradient id="paint0_radial_138_135" cx="0" cy="0" r="1" gradientUnits="userSpaceOnUse" gradientTransform="translate(58.9992 38.4999) rotate(116.118) scale(41.5753 41.6224)">
<stop stop-color="#6CEB02"/>
<stop offset="1" stop-color="#00A500"/>
</radialGradient>
<radialGradient id="paint1_radial_138_135" cx="0" cy="0" r="1" gradientUnits="userSpaceOnUse" gradientTransform="translate(18.2864 38.4999) rotate(62.2925) scale(43.3968 43.4459)">
<stop stop-color="#00EEF8"/>
<stop offset="1" stop-color="#007ECA"/>
</radialGradient>
<clipPath id="clip0_138_135">
<rect width="76" height="77" fill="white"/>
</clipPath>
<clipPath id="clip1_138_135">
<rect width="76" height="77" fill="white"/>
</clipPath>
<clipPath id="clip2_138_135">
<rect width="38" height="77" fill="white" transform="translate(38)"/>
</clipPath>
<clipPath id="clip3_138_135">
<rect width="38" height="77" fill="white" transform="matrix(-1 0 0 1 38 0)"/>
</clipPath>
</defs>
</svg>
