<svg width="16" height="17" viewBox="0 0 16 17" fill="none" xmlns="http://www.w3.org/2000/svg">
<path d="M15.998 5.26965V15.7955C15.998 16.5602 15.7903 16.7696 15.0342 16.7703H0.95567C0.21584 16.7696 0 16.5568 0 15.8256C0 12.4249 0 9.02589 0 5.62845V5.26965H15.998ZM5.92407 13.9511H7.62975V12.2458H5.92407V13.9511ZM8.37297 12.2396V13.9449H10.059V12.2396H8.37297ZM3.51046 9.79078V11.5077H5.19645V9.79078H3.51046ZM5.9356 9.79078V11.5022H7.63246V9.79078H5.9356ZM8.37025 9.79078V11.5009H10.0603V9.79147L8.37025 9.79078ZM10.792 11.5111H12.495V9.79897H10.792V11.5111ZM3.50299 13.9552H5.19578V12.2362H3.50299V13.9552ZM10.7995 12.2396V13.9518H12.4923V12.2396H10.7995ZM5.20053 7.36719H3.4996V9.05886H5.20053V7.36719ZM5.93085 9.05886H7.62771V7.359H5.93085V9.05886ZM8.356 9.05886H10.061V7.36719H8.356V9.05886ZM10.8056 7.35969V9.065H12.4889V7.35969H10.8056Z" fill="white"/>
<path d="M0.00797741 4.52062C0.00797741 3.67274 -0.0096699 2.846 0.0154436 2.01995C0.0276609 1.62909 0.302552 1.41286 0.732875 1.40058C1.26365 1.38557 1.79579 1.39512 2.32724 1.39444H2.74467C2.84987 0.9647 2.60553 0.409449 3.07861 0.167294C3.38608 0.0104054 3.80011 -0.0121047 4.15374 0.0117697C5.0361 0.0711146 4.83723 0.798943 4.88746 1.37602H11.0932C11.1964 0.966746 10.9432 0.395807 11.438 0.155698C11.7495 0.000173544 12.1609 -0.018926 12.5172 0.0131339C13.3704 0.0888499 13.1831 0.796897 13.2346 1.39444H14.8243C15.8702 1.39444 15.9992 1.52404 15.9992 2.56565V4.52062H0.00797741ZM3.49468 2.77029H4.15442V0.723909H3.49468V2.77029ZM12.4982 0.716406H11.8378V2.77643H12.4982V0.716406Z" fill="white"/>
</svg>
