<svg width="39" height="40" viewBox="0 0 39 40" fill="none" xmlns="http://www.w3.org/2000/svg">
<path d="M38.2036 8.48997H33.7519C33.5484 9.36888 33.3813 10.2267 33.1499 11.0668C32.0085 15.2233 29.8389 18.7649 26.685 21.6948C23.0769 25.0482 18.8064 27.1179 13.9865 28.0392C9.3788 28.9202 4.83944 28.5879 0.39128 27.0899C0.156803 27.0101 -0.0448664 26.8951 0.0087113 26.6026C0.066503 26.2853 0.30971 26.2573 0.570074 26.2835C1.13475 26.3398 1.69761 26.425 2.26379 26.4533C9.43538 26.813 15.1703 23.9974 19.6377 18.4897C21.9635 15.6218 23.3776 12.3157 24.0239 8.6817C24.0276 8.62668 24.0276 8.57147 24.0239 8.51645H18.863C18.8476 8.48364 18.8329 8.45084 18.8166 8.41803L28.4681 0L38.2036 8.48997Z" fill="#01C314"/>
<path d="M34.8542 9.76553V39.9999H29.8955V39.5484C29.8955 33.1807 29.8985 26.8132 29.9045 20.4459C29.9045 20.2243 29.9849 19.9606 30.1191 19.7873C32.3577 16.8884 33.8976 13.6653 34.6802 10.0816C34.7046 9.97021 34.7485 9.86305 34.7834 9.75409L34.8542 9.76553Z" fill="#01C314"/>
<path d="M27.3734 22.7777V39.9948H22.4214V39.5542C22.4214 35.2818 22.4193 31.0092 22.415 26.7364C22.415 26.4478 22.4846 26.2768 22.7482 26.1293C24.2805 25.2662 25.7144 24.2392 27.0248 23.0664C27.1218 22.9803 27.2241 22.9008 27.3734 22.7777Z" fill="#01C314"/>
<path d="M14.9619 39.991V29.2101L19.8998 27.6516V39.991H14.9619Z" fill="#01C314"/>
<path d="M4.94171 39.999H0.00292969V28.3504L4.94171 29.5375V39.999Z" fill="#01C314"/>
<path d="M7.49316 29.7892L12.4217 29.6216V39.9979H7.49316V29.7892Z" fill="#01C314"/>
</svg>
