<svg width="36" height="36" viewBox="0 0 36 36" fill="none" xmlns="http://www.w3.org/2000/svg">
<g clip-path="url(#clip0_15_530)">
<path d="M36 18C36 8.05887 27.9411 0 18 0C8.05887 0 0 8.05887 0 18C0 27.9411 8.05887 36 18 36C27.9411 36 36 27.9411 36 18Z" fill="#269CD8"/>
<path d="M18 7.65332C12.2949 7.65332 7.65363 12.2946 7.65363 17.9997C7.65363 23.7048 12.2949 28.3461 18 28.3461C23.7051 28.3461 28.3464 23.7048 28.3464 17.9997C28.3464 12.2946 23.7051 7.65332 18 7.65332ZM16.6502 16.952C16.6502 16.3932 16.7953 15.9513 17.0817 15.6384C17.3755 15.3171 17.7734 15.1472 18.2319 15.1472C18.6865 15.1472 19.0861 15.3144 19.3873 15.631C19.6862 15.9454 19.8377 16.3682 19.8377 16.8883V23.1741C19.8377 23.7394 19.6875 24.1878 19.3915 24.5066C19.0902 24.8314 18.689 25.003 18.2319 25.003C17.7687 25.003 17.3682 24.8245 17.0738 24.4868C16.7928 24.1647 16.6502 23.723 16.6502 23.1741V16.952ZM19.3485 13.8937C19.0419 14.1659 18.6742 14.3041 18.2557 14.3041C17.8291 14.3041 17.4563 14.1688 17.1478 13.9018C16.921 13.7062 16.6502 13.3436 16.6502 12.7303C16.6502 12.281 16.8223 11.8879 17.1475 11.594C17.4629 11.3091 17.8358 11.1645 18.2557 11.1645C18.6566 11.1645 19.0174 11.2948 19.3277 11.5518C19.5605 11.745 19.8375 12.106 19.8375 12.7303C19.8377 13.2077 19.6686 13.61 19.3485 13.8937Z" fill="black"/>
</g>
<defs>
<clipPath id="clip0_15_530">
<rect width="36" height="36" fill="white"/>
</clipPath>
</defs>
</svg>
