<svg width="14" height="22" viewBox="0 0 14 22" fill="none" xmlns="http://www.w3.org/2000/svg">
<path d="M6.92404 21.5274C4.93149 18.6117 3.06739 15.6075 1.52346 12.3912C0.986021 11.2687 0.518239 10.1135 0.198716 8.89486C-0.135505 7.6224 -0.0243111 6.36698 0.354643 5.13474C0.840958 3.55422 1.73946 2.28585 3.01755 1.33236C3.89031 0.676176 4.89634 0.249706 5.95333 0.0878441C7.74266 -0.190911 9.41249 0.190758 10.9053 1.27579C12.6263 2.52576 13.6391 4.27462 13.9427 6.48217C14.0775 7.46496 13.9682 8.41709 13.68 9.35763C13.1158 11.1978 12.2786 12.9017 11.3795 14.5688C10.111 16.893 8.72768 19.1437 7.23526 21.3114L7.08508 21.5274H6.92404ZM7.00648 10.1401C7.50238 10.1386 7.98674 9.9803 8.39831 9.68526C8.80988 9.39022 9.13019 8.97166 9.31874 8.48249C9.50729 7.99332 9.55561 7.45551 9.45759 6.93705C9.35957 6.4186 9.11962 5.94278 8.76807 5.56975C8.41652 5.19672 7.96916 4.94324 7.48254 4.84135C6.99593 4.73945 6.49191 4.79373 6.03422 4.9973C5.57652 5.20088 5.1857 5.54463 4.91116 5.98507C4.63662 6.42552 4.49069 6.94289 4.49183 7.47178C4.4942 8.18103 4.7603 8.86032 5.23174 9.36056C5.70318 9.8608 6.34145 10.1411 7.00648 10.1401Z" fill="white"/>
</svg>
