<svg width="40" height="40" viewBox="0 0 40 40" fill="none" xmlns="http://www.w3.org/2000/svg">
<path d="M32.0288 25.915V22.0834H8.02417V25.9377H4.04297V18.1069H35.9341V25.9166L32.0288 25.915Z" fill="#01C314"/>
<path d="M19.9694 15.9711C15.5057 15.9562 11.9903 12.3931 12.0177 7.9223C12.0412 3.46485 15.6177 -0.0419094 20.0916 0.000378455C24.4981 0.0426663 27.9861 3.57292 27.9845 7.98809C27.983 12.4518 24.4331 15.986 19.9694 15.9711ZM24.0142 8.04447C24.0572 5.89875 22.2976 4.05923 20.1213 3.97231C17.9451 3.88538 16.0312 5.71707 15.9865 7.92622C15.9435 10.0712 17.7023 11.9099 19.8794 11.9984C22.0564 12.0869 23.9672 10.2497 24.011 8.04447H24.0142Z" fill="#01C314"/>
<path d="M34.0014 39.9998C30.6646 39.9944 27.9652 37.2848 27.9974 33.9699C28.0295 30.7192 30.7179 28.0292 33.9693 27.9948C37.2795 27.9595 39.9922 30.6574 39.9993 33.9957C40.0055 37.3615 37.3633 40.0061 34.0014 39.9998ZM36.0227 34.0326C36.0313 32.9699 35.1283 32.045 34.0586 32.0215C33.5365 32.0147 33.0322 32.2111 32.6522 32.5693C32.2723 32.9275 32.0465 33.4193 32.0225 33.9409C31.9795 35.0545 32.9247 36.035 34.0312 36.0263C35.0876 36.0177 36.0164 35.089 36.0227 34.0326Z" fill="#01C314"/>
<path d="M5.92772 39.9999C2.57131 39.9748 -0.0356542 37.306 0.000368837 33.9308C0.0170325 32.3549 0.653448 30.8489 1.77194 29.7386C2.89043 28.6284 4.40107 28.003 5.97705 27.998C9.26611 27.998 12.0219 30.7631 12.0015 34.0428C11.9963 34.8335 11.8348 35.6153 11.5263 36.3433C11.2178 37.0714 10.7683 37.7312 10.2038 38.2848C9.63932 38.8385 8.9709 39.275 8.23704 39.5694C7.50317 39.8637 6.71835 40.01 5.92772 39.9999ZM6.0303 32.0224C5.50735 32.0173 5.00247 32.2136 4.62034 32.5707C4.23821 32.9277 4.00813 33.4181 3.97778 33.9402C3.92766 35.0366 4.88853 36.0335 5.99428 36.0248C7.05539 36.017 7.9732 35.0976 7.98259 34.0342C7.98047 33.5115 7.77593 33.0099 7.41191 32.6348C7.04789 32.2597 6.55271 32.0402 6.0303 32.0224Z" fill="#01C314"/>
</svg>