<svg width="37" height="40" viewBox="0 0 37 40" fill="none" xmlns="http://www.w3.org/2000/svg">
<path d="M19.4219 9.7709C19.4219 11.1129 19.4174 12.4313 19.4314 13.7492C19.4314 13.8502 19.5481 14.0161 19.6383 14.0389C20.7556 14.3285 21.7413 14.883 22.6682 15.5484C22.8793 15.6999 23.0299 15.7173 23.2587 15.5832C24.2171 15.0241 25.1837 14.4808 26.1524 13.9454C26.3813 13.8183 26.4765 13.7149 26.4094 13.4074C26.0465 11.7476 26.6991 9.56773 28.4569 8.43183C31.6391 6.37771 35.8177 8.25721 36.3155 12.01C36.4653 13.1409 36.1752 14.1945 35.5292 15.1293C33.8831 17.5115 30.5309 18.5332 27.8821 16.1253C27.8437 16.0905 27.8027 16.0587 27.7402 16.0069C26.6105 16.6467 25.4742 17.2823 24.3512 17.9415C24.2643 17.9924 24.2336 18.2088 24.2423 18.3441C24.2982 19.2003 24.3954 20.0544 24.4298 20.9097C24.4443 21.2664 24.3379 21.6276 24.2796 22.0336L27.739 23.9942C29.1612 22.7308 30.809 22.2889 32.5991 22.7673C35.0062 23.4103 36.45 25.2137 36.3424 27.6059C36.2513 29.6211 34.5667 31.5233 32.6918 32.2616C29.8643 33.3743 26.0635 30.5836 26.3151 27.2479C26.3316 27.0274 26.3374 26.7969 26.4074 26.5916C26.4976 26.328 26.4276 26.2031 26.1889 26.0719C25.1155 25.4826 24.0528 24.8719 22.9852 24.2694C22.6273 24.5565 22.2917 24.845 21.9358 25.1069C21.2617 25.6034 20.5032 25.9735 19.6971 26.1993C19.5874 26.23 19.436 26.3856 19.4348 26.4853C19.4165 27.7267 19.4228 28.9648 19.4228 30.2319C19.597 30.2898 19.7654 30.3452 19.9334 30.4028C22.0732 31.134 23.3464 33.119 23.1822 35.4673C23.034 37.5852 21.2886 39.5139 19.1612 39.9095C16.6296 40.3808 14.1844 38.9726 13.3841 36.5825C12.5731 34.1593 13.6978 31.4989 16.1152 30.3647C16.7703 30.0572 16.9672 29.7312 16.9221 29.0459C16.8559 28.0466 16.9052 27.0398 16.9052 26.0115C15.6472 25.716 14.5618 25.1102 13.5368 24.3786C13.4615 24.3248 13.3042 24.3037 13.2281 24.3455C12.1005 24.9703 10.9803 25.6088 9.84691 26.249C10.0952 27.149 10.0124 28.0085 9.8167 28.894C9.34414 31.0458 6.68958 32.8624 4.40828 32.4528C2.13732 32.0414 0.418796 30.6457 0.02651 27.8906C-0.169219 26.5155 0.724598 23.9408 2.51844 23.2303C3.30756 22.9179 4.04951 22.4561 4.92388 22.5078C6.29357 22.5906 7.54864 23.0044 8.63529 23.9685C9.71491 23.3577 10.84 22.7271 11.9523 22.0779C12.0459 22.0232 12.1034 21.8159 12.0897 21.6885C12.045 21.2614 11.8969 20.8369 11.9052 20.4139C11.9188 19.727 12.0363 19.043 12.0823 18.3561C12.0922 18.2063 12.0306 17.97 11.9234 17.9067C10.8231 17.2587 9.70663 16.638 8.58357 16.0032C7.75596 16.7857 6.81414 17.3423 5.68239 17.4387C5.0952 17.4884 4.4629 17.485 3.90303 17.322C1.37386 16.5842 0.0703733 15.2141 0.11134 12.4263C0.138237 10.6014 0.860739 8.91723 2.76465 8.05486C4.6996 7.17842 6.49427 7.40063 8.19625 8.5928C8.53976 8.83159 8.8369 9.13097 9.0731 9.47628C9.87877 10.6846 10.2065 12.0179 9.91105 13.4604C9.85974 13.712 9.92429 13.8018 10.1204 13.911C11.1136 14.4628 12.1008 15.0226 13.082 15.5906C13.2889 15.7098 13.4288 15.6949 13.6403 15.5695C14.6371 14.9795 15.6551 14.425 16.6573 13.8436C16.767 13.7803 16.8948 13.6288 16.8961 13.5167C16.9134 12.2752 16.9068 11.0371 16.9068 9.76097C15.3666 9.36414 14.2171 8.47239 13.555 7.01456C13.0762 5.95439 12.9968 4.84995 13.2964 3.7244C13.9105 1.4162 16.044 -0.1186 18.4578 0.00719613C19.616 0.0680855 20.7173 0.528975 21.5736 1.31123C22.43 2.09349 22.9884 3.14865 23.1536 4.29669C23.514 6.73358 22.0496 9.10716 19.4219 9.7709ZM21.9403 20.0001C21.9403 18.0015 20.1962 16.2598 18.1855 16.249C16.1616 16.2383 14.3921 17.987 14.3909 20.0001C14.3897 22.0133 16.1703 23.7707 18.1855 23.7554C20.2007 23.7401 21.9416 21.9951 21.9403 20.0001ZM5.1374 24.9848C3.44453 24.9815 2.703 25.7711 2.45347 27.0572C2.23209 28.1984 3.0328 29.6463 4.12607 29.9327C4.86264 30.1255 5.61907 30.0088 6.3482 29.7427C7.06987 29.4792 7.46133 28.9151 7.54202 28.2278C7.61113 27.6377 7.49526 27.0092 7.36946 26.417C7.21512 25.6908 6.68793 25.2621 5.98488 25.0754C5.71342 25.0034 5.42086 25.0126 5.1374 24.9848ZM28.7656 12.3849C28.86 14.1063 29.904 15.1648 31.4305 15.0862C32.8035 15.0159 34.0565 13.7041 33.8881 12.3626C33.6978 10.846 32.9993 9.8218 31.0089 9.9927C29.6396 10.1102 28.646 10.9213 28.7664 12.3849H28.7656ZM33.7933 27.5272C33.7958 26.0748 32.8002 25.0349 31.4347 25.0055C29.8188 24.9712 28.6622 26.0603 28.6858 27.6501C28.7077 29.1427 29.851 30.0146 31.4169 30.097C32.7319 30.1665 33.7913 28.971 33.7933 27.5272ZM2.54782 12.4234C2.49485 13.2833 2.49609 13.366 2.97942 13.8845C3.30053 14.2317 3.63364 14.6662 4.04869 14.811C5.94391 15.4731 7.48616 14.3778 7.57016 12.3853C7.61692 11.268 6.89773 10.3026 5.81066 10.0949C5.36582 10.0097 4.90236 10.0146 4.44511 9.99684C4.32835 9.99648 4.21433 10.0322 4.11862 10.0991C3.25708 10.7098 2.35499 11.3003 2.54782 12.4234ZM18.1623 7.48753C19.6793 7.48753 20.6766 6.50764 20.6811 5.00843C20.6857 3.50177 19.7037 2.51319 18.1896 2.49995C16.661 2.48671 15.6472 3.48481 15.6497 5.00057C15.6518 6.50061 16.6474 7.48588 18.1623 7.48753ZM18.166 37.5012C19.6839 37.5012 20.6782 36.5196 20.6815 35.0183C20.6849 33.4976 19.681 32.5057 18.1474 32.5148C16.6337 32.5243 15.6472 33.5125 15.6501 35.0175C15.6526 36.5155 16.6515 37.5016 18.166 37.5012Z" fill="#01C314"/>
</svg>
