<svg width="48" height="40" viewBox="0 0 48 40" fill="none" xmlns="http://www.w3.org/2000/svg">
<path d="M0 22.1363C0.263981 21.2981 0.420352 20.4065 0.810439 19.6305C2.49185 16.2892 5.27668 14.5342 8.98251 14.3387C11.0746 14.2282 13.1772 14.3148 15.2748 14.3143C15.3569 14.321 15.4385 14.3322 15.5194 14.348C15.498 16.704 16.5135 18.6171 18.1865 20.2577C12.4214 22.5045 10.0855 26.8274 10.455 32.8388C9.22085 32.7035 8.03882 32.6467 6.88663 32.4311C4.76806 32.0351 2.66545 31.5526 0.56117 31.086C0.356879 31.0389 0.186216 30.843 0 30.7169V22.1363Z" fill="#01C314"/>
<path d="M11.9688 37.9024C12.0562 34.9952 12.0083 32.1288 12.263 29.2898C12.5547 26.0589 14.4177 23.8176 17.3182 22.4208C18.6549 21.7764 20.0685 21.4758 21.5524 21.48C23.308 21.4868 25.0637 21.4868 26.8194 21.48C29.9262 21.4653 32.4075 22.7751 34.35 25.1224C35.5509 26.573 36.0802 28.3351 36.0734 30.1881C36.0663 32.7165 35.9019 35.2445 35.8145 37.7733C35.8031 38.0982 35.5934 38.1613 35.3521 38.258C31.3256 39.8709 27.1132 40.1012 22.8475 39.968C20.2375 39.8839 17.7103 39.3227 15.1903 38.7069C14.1235 38.4492 13.0566 38.1752 11.9688 37.9024Z" fill="#01C314"/>
<path d="M37.5973 32.5034C37.5973 31.7313 37.6007 31.0188 37.5973 30.3063C37.583 27.7362 36.7423 25.4592 35.0937 23.4999C34.0639 22.2788 32.7091 21.4801 31.274 20.8143C30.9255 20.652 30.588 20.4658 30.1865 20.2603C32.0012 18.6789 32.7927 16.678 32.8406 14.3779C32.9033 14.3484 32.9306 14.3241 32.9575 14.3245C35.132 14.3392 37.3098 14.2824 39.4801 14.3905C42.4129 14.5368 44.5903 16.0265 46.1637 18.4641C47.2385 20.1283 47.7808 21.9358 47.7568 23.9228C47.7346 25.7723 47.7434 27.6219 47.7568 29.4714C47.7602 29.8628 47.6421 30.0683 47.2675 30.2441C44.6731 31.461 41.9177 32.0146 39.0925 32.3038C38.6201 32.3513 38.1463 32.429 37.5973 32.5034Z" fill="#01C314"/>
<path d="M31.0564 14.3265C31.1161 18.0332 28.0492 21.1514 24.2685 21.1858C20.1159 21.2224 17.1646 17.6654 17.03 13.9276C16.901 10.2941 20.1827 7.20533 24.1025 7.15993C27.6423 7.11537 31.1257 10.0141 31.0564 14.3265Z" fill="#01C314"/>
<path d="M11.879 0.271667C15.6328 0.282176 18.7602 3.34907 18.7959 7.09903C18.7909 7.20008 18.7656 7.29909 18.7217 7.3902C18.6777 7.48132 18.6159 7.5627 18.5399 7.62951C16.8585 8.93555 15.9409 10.6809 15.587 12.7448C15.5353 13.0449 15.4167 13.2198 15.1536 13.3379C10.0816 15.6141 5.06176 11.9331 4.7776 7.45843C4.59054 4.51596 6.61328 1.64244 9.55196 0.690759C9.90502 0.573757 10.2659 0.481753 10.6318 0.415428C11.0434 0.341446 11.4629 0.316645 11.879 0.271667Z" fill="#01C314"/>
<path d="M42.7053 6.9031C42.9154 11.6081 38.4479 15.0193 33.7698 13.7347C33.1309 13.559 32.8056 13.3177 32.6828 12.5791C32.281 10.1663 31.0901 8.22259 28.8996 6.99936C28.602 6.83333 28.6445 6.6139 28.668 6.37094C28.9757 3.22586 31.2263 0.749147 34.3272 0.138795C38.1995 -0.622883 41.8335 1.82273 42.5741 5.69964C42.6498 6.09519 42.6632 6.50167 42.7053 6.9031Z" fill="#01C314"/>
</svg>
