<?xml version="1.0" encoding="utf-8"?>
<!-- Generator: Adobe Illustrator 28.0.0, SVG Export Plug-In . SVG Version: 6.00 Build 0)  -->
<svg version="1.1" id="Слой_1" xmlns="http://www.w3.org/2000/svg" xmlns:xlink="http://www.w3.org/1999/xlink" x="0px" y="0px"
	 viewBox="0 0 28 28" style="enable-background:new 0 0 28 28;" xml:space="preserve">
<style type="text/css">
	.st0{fill:#FFFFFF;}
	.st1{fill:#357DE5;}
</style>
<g>
	<g>
		<polygon class="st0" points="12.1,25.8 9.7,27.3 8.6,24.7 5.8,25.3 5.5,22.5 2.7,22.2 3.3,19.4 0.7,18.3 2.2,15.9 0,14 2.2,12.1 
			0.7,9.7 3.3,8.6 2.7,5.8 5.5,5.5 5.8,2.7 8.6,3.3 9.7,0.7 12.1,2.2 14,0 15.9,2.2 18.3,0.7 19.4,3.3 22.2,2.7 22.5,5.5 25.3,5.8 
			24.7,8.6 27.3,9.7 25.8,12.1 28,14 25.8,15.9 27.3,18.3 24.7,19.4 25.3,22.2 22.5,22.5 22.2,25.3 19.4,24.7 18.3,27.3 15.9,25.8 
			14,28 		"/>
		<polygon class="st1" points="14,2 15.6,3.9 17.7,2.6 18.7,4.8 21.1,4.3 21.3,6.7 23.7,6.9 23.2,9.3 25.4,10.3 24.1,12.4 26,14 
			24.1,15.6 25.4,17.7 23.2,18.7 23.7,21.1 21.3,21.3 21.1,23.7 18.7,23.2 17.7,25.4 15.6,24.1 14,26 12.4,24.1 10.3,25.4 9.3,23.2 
			6.9,23.7 6.7,21.3 4.3,21.1 4.8,18.7 2.6,17.7 3.9,15.6 2,14 3.9,12.4 2.6,10.3 4.8,9.3 4.3,6.9 6.7,6.7 6.9,4.3 9.3,4.8 
			10.3,2.6 12.4,3.9 		"/>
	</g>
	<g>
		<path class="st0" d="M9.9,20.1c-0.1,0-0.2,0-0.3-0.1c-0.1-0.1-0.1-0.2-0.1-0.3V8.4c0-0.1,0-0.2,0.1-0.3C9.7,8,9.8,7.9,9.9,7.9H18
			c0.1,0,0.2,0,0.3,0.1c0.1,0.1,0.1,0.2,0.1,0.3V10c0,0.1,0,0.2-0.1,0.3c-0.1,0.1-0.2,0.1-0.3,0.1h-5.5v2.3h5.1c0.1,0,0.2,0,0.3,0.1
			C18,13,18,13.1,18,13.2v1.5c0,0.1,0,0.2-0.1,0.3c-0.1,0.1-0.2,0.1-0.3,0.1h-5.1v2.4h5.7c0.1,0,0.2,0,0.3,0.1
			c0.1,0.1,0.1,0.2,0.1,0.3v1.6c0,0.1,0,0.2-0.1,0.3c-0.1,0.1-0.2,0.1-0.3,0.1H9.9z"/>
	</g>
</g>
</svg>
