<?xml version="1.0" encoding="utf-8"?>
<!-- Generator: Adobe Illustrator 28.0.0, SVG Export Plug-In . SVG Version: 6.00 Build 0)  -->
<svg version="1.1" id="Слой_1" xmlns="http://www.w3.org/2000/svg" xmlns:xlink="http://www.w3.org/1999/xlink" x="0px" y="0px"
	 viewBox="0 0 28 28" style="enable-background:new 0 0 28 28;" xml:space="preserve">
<style type="text/css">
	.st0{fill:#FFFFFF;}
	.st1{fill:#BF14C4;}
</style>
<g>
	<g>
		<polygon class="st0" points="12.1,25.8 9.7,27.3 8.6,24.7 5.8,25.3 5.5,22.5 2.7,22.2 3.3,19.4 0.7,18.3 2.2,15.9 0,14 2.2,12.1 
			0.7,9.7 3.3,8.6 2.7,5.8 5.5,5.5 5.8,2.7 8.6,3.3 9.7,0.7 12.1,2.2 14,0 15.9,2.2 18.3,0.7 19.4,3.3 22.2,2.7 22.5,5.5 25.3,5.8 
			24.7,8.6 27.3,9.7 25.8,12.1 28,14 25.8,15.9 27.3,18.3 24.7,19.4 25.3,22.2 22.5,22.5 22.2,25.3 19.4,24.7 18.3,27.3 15.9,25.8 
			14,28 		"/>
		<polygon class="st1" points="14,2 15.6,3.9 17.7,2.6 18.7,4.8 21.1,4.3 21.3,6.7 23.7,6.9 23.2,9.3 25.4,10.3 24.1,12.4 26,14 
			24.1,15.6 25.4,17.7 23.2,18.7 23.7,21.1 21.3,21.3 21.1,23.7 18.7,23.2 17.7,25.4 15.6,24.1 14,26 12.4,24.1 10.3,25.4 9.3,23.2 
			6.9,23.7 6.7,21.3 4.3,21.1 4.8,18.7 2.6,17.7 3.9,15.6 2,14 3.9,12.4 2.6,10.3 4.8,9.3 4.3,6.9 6.7,6.7 6.9,4.3 9.3,4.8 
			10.3,2.6 12.4,3.9 		"/>
	</g>
	<g>
		<path class="st0" d="M14,20.5c-1.1,0-2.1-0.2-2.9-0.6S9.6,19,9.1,18.2c-0.4-0.7-0.7-1.6-0.7-2.6c0-0.5,0-1.1,0-1.6s0-1.1,0-1.7
			c0-1,0.3-1.9,0.8-2.6c0.5-0.7,1.1-1.2,1.9-1.6c0.8-0.4,1.8-0.6,2.9-0.6c0.9,0,1.7,0.1,2.4,0.3c0.7,0.2,1.3,0.5,1.7,0.9
			c0.5,0.4,0.8,0.8,1.1,1.2c0.2,0.4,0.4,0.9,0.4,1.3c0,0.1,0,0.2-0.1,0.3c-0.1,0.1-0.2,0.1-0.3,0.1h-2.6c-0.1,0-0.2,0-0.3-0.1
			c-0.1,0-0.1-0.1-0.2-0.2c-0.1-0.2-0.2-0.4-0.4-0.6c-0.2-0.2-0.4-0.4-0.7-0.5c-0.3-0.1-0.6-0.2-1.1-0.2c-0.7,0-1.2,0.2-1.6,0.5
			c-0.4,0.4-0.6,0.9-0.6,1.7c0,1,0,2.1,0,3.1c0,0.8,0.3,1.4,0.7,1.8c0.4,0.4,1,0.6,1.6,0.6c0.4,0,0.8-0.1,1.2-0.2
			c0.4-0.2,0.6-0.4,0.8-0.7c0.2-0.3,0.3-0.8,0.3-1.3v-0.3h-1.7c-0.1,0-0.2,0-0.3-0.1c-0.1-0.1-0.1-0.2-0.1-0.3v-1.3
			c0-0.1,0-0.2,0.1-0.3c0.1-0.1,0.2-0.1,0.3-0.1h4.5c0.1,0,0.2,0,0.3,0.1c0.1,0.1,0.1,0.2,0.1,0.3v2c0,1-0.2,1.9-0.7,2.6
			c-0.5,0.7-1.1,1.3-2,1.7C16.1,20.3,15.1,20.5,14,20.5z"/>
	</g>
</g>
</svg>
